<svg width="26" height="27" viewBox="0 0 26 27" fill="none" xmlns="http://www.w3.org/2000/svg">
<path d="M12.999 12.8315V16.0646" stroke="white" stroke-width="1.5" stroke-miterlimit="10" stroke-linecap="round"/>
<path d="M15.4809 17.942L12.9992 16.0605L10.5176 17.942" stroke="white" stroke-width="1.5" stroke-miterlimit="10" stroke-linecap="round"/>
<path d="M8.6123 12.1948V10.2964C8.6123 8.63537 9.74505 8.02515 11.206 8.02515L12.9992 10.1184L14.6643 8.02515C16.1253 8.02515 17.3861 8.63961 17.3861 10.2964V12.1948" stroke="white" stroke-width="1.5" stroke-miterlimit="10" stroke-linejoin="round"/>
<path d="M15.0284 3.99156C15.0284 5.19074 14.1158 6.17387 12.9991 6.17387C11.8823 6.17387 10.9697 5.19074 10.9697 3.99156V3.18226C10.9697 1.98308 11.8823 1 12.9991 1C14.1158 1 15.0284 1.98308 15.0284 3.18226V3.99156Z" stroke="white" stroke-width="1.5" stroke-miterlimit="10"/>
<path d="M16.2256 26.9999V25.1016C16.2256 23.4406 17.3583 22.8303 18.8193 22.8303L20.6125 24.9237L22.2776 22.8303C23.7386 22.8303 24.9994 23.4448 24.9994 25.1016V26.9999" stroke="white" stroke-width="1.5" stroke-miterlimit="10" stroke-linejoin="round"/>
<path d="M22.6417 18.7968C22.6417 19.996 21.7291 20.979 20.6123 20.979C19.4956 20.979 18.583 19.996 18.583 18.7968V17.9874C18.583 16.7882 19.4956 15.8052 20.6123 15.8052C21.7291 15.8052 22.6417 16.7882 22.6417 17.9874V18.7968Z" stroke="white" stroke-width="1.5" stroke-miterlimit="10"/>
<path d="M1 26.9999V25.1016C1 23.4406 2.13276 22.8303 3.59373 22.8303L5.38693 24.9237L7.05203 22.8303C8.513 22.8303 9.77384 23.4448 9.77384 25.1016V26.9999" stroke="white" stroke-width="1.5" stroke-miterlimit="10" stroke-linejoin="round"/>
<path d="M7.41612 18.7968C7.41612 19.996 6.50352 20.979 5.38677 20.979C4.27003 20.979 3.35742 19.996 3.35742 18.7968V17.9874C3.35742 16.7882 4.27003 15.8052 5.38677 15.8052C6.50352 15.8052 7.41612 16.7882 7.41612 17.9874V18.7968Z" stroke="white" stroke-width="1.5" stroke-miterlimit="10"/>
</svg>
