<svg width="26" height="30" viewBox="0 0 26 30" fill="none" xmlns="http://www.w3.org/2000/svg">
<path d="M21.9159 9.30136V3.57577L13.0029 1L4.08984 3.59374L13.0029 6.55074L21.6012 3.7103" stroke="white" stroke-width="1.5" stroke-miterlimit="10" stroke-linecap="round" stroke-linejoin="round"/>
<path d="M7.42676 6.726V7.79829C8.72094 8.95151 10.7597 9.68761 13.0068 9.68761C15.2495 9.68761 17.2927 8.94702 18.5824 7.79829V4.74707" stroke="white" stroke-width="1.5" stroke-miterlimit="10" stroke-linejoin="round"/>
<path d="M8.16602 10.527C8.50729 14.1482 10.5018 17.1097 12.9527 17.1097C15.417 17.1097 17.3982 14.1437 17.7394 10.527C17.8103 9.7821 17.8547 9.06874 17.8369 8.40015" stroke="white" stroke-width="1.5" stroke-miterlimit="10" stroke-linejoin="round"/>
<path d="M25 29.0004L24.5524 22.9383C24.1091 19.5908 22.1235 19.2184 22.1235 19.2184C22.1235 19.2184 19.9607 18.5991 17.6604 18.2087L13.0022 24.4998L8.34404 18.2087C6.0482 18.5991 3.88089 19.2184 3.88089 19.2184C3.88089 19.2184 1.89529 19.5908 1.44765 22.9383L1 29.0004" stroke="white" stroke-width="1.5" stroke-miterlimit="10" stroke-linecap="round" stroke-linejoin="round"/>
<path d="M17.7227 23.2561H20.936" stroke="white" stroke-width="1.5" stroke-miterlimit="10" stroke-linecap="round" stroke-linejoin="round"/>
</svg>
