<svg width="26" height="27" viewBox="0 0 26 27" fill="none" xmlns="http://www.w3.org/2000/svg">
<path d="M7.9732 15.9529L5.4366 16.7054C5.4366 16.7054 1 17.6924 1 20.9407V26.9982" stroke="white" stroke-width="1.5" stroke-miterlimit="10"/>
<path d="M11.0001 18.2282L6.20117 20.6632L7.96895 15.9583" stroke="white" stroke-width="1.5" stroke-miterlimit="10" stroke-linecap="round" stroke-linejoin="round"/>
<path d="M9.21777 19.2407L12.9933 25.9114" stroke="white" stroke-width="1.5" stroke-miterlimit="10" stroke-linecap="round" stroke-linejoin="round"/>
<path d="M18.0273 15.9546L20.5639 16.7071C20.5639 16.7071 25.0005 17.6941 25.0005 20.9424V26.9999" stroke="white" stroke-width="1.5" stroke-miterlimit="10"/>
<path d="M15.001 18.2292L19.7999 20.6642L18.0322 15.9592" stroke="white" stroke-width="1.5" stroke-miterlimit="10" stroke-linecap="round" stroke-linejoin="round"/>
<path d="M16.7833 19.2422L13.0078 25.9129" stroke="white" stroke-width="1.5" stroke-miterlimit="10" stroke-linecap="round" stroke-linejoin="round"/>
<path d="M14.556 4.43848C14.556 4.43848 13.841 8.39128 7.66602 7.96948" stroke="white" stroke-width="1.5" stroke-miterlimit="10" stroke-linecap="round" stroke-linejoin="round"/>
<path d="M14.1592 5.52563C14.1592 5.52563 15.6625 7.86527 18.2775 7.97398" stroke="white" stroke-width="1.5" stroke-miterlimit="10" stroke-linecap="round"/>
<path d="M20.6711 13.7487C20.6711 10.7005 20.6711 10.8309 20.6711 8.14351C20.6711 0.616319 12.9977 1.00337 12.9977 1.00337C12.9977 1.00337 5.32422 0.768515 5.32422 8.14351C5.32422 10.8352 5.32422 10.7048 5.32422 13.7487" stroke="white" stroke-width="1.5" stroke-miterlimit="10" stroke-linecap="round" stroke-linejoin="round"/>
<path d="M8.43848 8.41329C8.43848 11.8007 10.6078 14.8795 13.0563 14.8795C15.5292 14.8795 17.4096 11.792 17.4096 8.60459C17.4096 8.60459 17.4194 8.52636 17.4096 7.99585" stroke="white" stroke-width="1.5" stroke-miterlimit="10" stroke-linecap="round" stroke-linejoin="round"/>
</svg>
